<svg id="Layer_1" data-name="Layer 1" xmlns="http://www.w3.org/2000/svg" viewBox="0 0 2452.8 614.4"><defs><style>.cls-1{fill:#0ba4d8;}.cls-2{fill:#fff;}</style></defs><title>Sms Api Logo Web</title><rect class="cls-1" x="1359.6" y="5.8" width="1082.2" height="602.38"/><path class="cls-2" d="M253.3,233.2c0-14.4-5.2-27.4-15.4-38.9-17.8-19.4-41.8-29-72.3-29a106,106,0,0,0-50,12.3Q78,197.4,77.9,233.2a31.2,31.2,0,0,0,3.1,13q10.5,20.4,69.8,43.2,73.5,29.1,88.3,35.8,74.7,37.7,74.7,93.3-.6,39.5-33.3,72.8-45.1,44.6-114.9,44.5-60.4,0-104.4-34T17.4,418.5H66.8c.4,14.4,6.6,27.5,18.5,39.5q30.3,28.3,80.3,28.4a129.2,129.2,0,0,0,58.7-13.6q40.1-20.4,40.1-54.3a27.6,27.6,0,0,0-3.7-13.6q-10.5-21-70.4-44.5-72.9-28.3-87.1-35.2-74.7-37.1-74.7-92c0-26.8,9.9-51,29.7-72.9q40.6-44.4,107.4-44.4,53.1,0,92.6,30.8,44.6,35.3,44.5,86.5Z"/><path class="cls-2" d="M449.7,535.8H400.3V115.9H441l6.2,14.8L591.7,450.6,735.6,130.7l6.2-14.8h40.7v24.7l.6,370.5v24.7H733.7V511.1l-.6-255.7L613.9,521l-6.2,14.8H575.6L569.5,521,449.7,255.4V535.8Z"/><path class="cls-2" d="M1105.5,233.2c0-14.4-5.2-27.4-15.5-38.9-17.7-19.4-41.8-29-72.2-29a106,106,0,0,0-50,12.3c-25.2,13.2-37.7,31.7-37.7,55.6a31.2,31.2,0,0,0,3.1,13c7,13.6,30.2,28,69.8,43.2q73.4,29.1,88.3,35.8,74.7,37.7,74.7,93.3-.6,39.5-33.4,72.8-45,44.6-114.8,44.5-60.6,0-104.4-34t-43.8-83.3H919c.4,14.4,6.6,27.5,18.5,39.5,20.2,18.9,46.9,28.4,80.3,28.4a128.5,128.5,0,0,0,58.6-13.6q40.2-20.4,40.2-54.3a28.7,28.7,0,0,0-3.7-13.6q-10.5-21-70.4-44.5-72.9-28.3-87.1-35.2-74.7-37.1-74.7-92c0-26.8,9.9-51,29.6-72.9q40.8-44.4,107.5-44.4,53.1,0,92.6,30.8,44.4,35.3,44.5,86.5Z"/><path class="cls-2" d="M1509.3,535.8h-53.7l14.8-34.6L1631,130.7l6.8-14.8h32.1l6.8,14.8,160.5,370.5,14.8,34.6h-53.7l-6.8-14.8L1653.8,202.9,1516.1,521Z"/><path class="cls-2" d="M1913.2,325.8l.6-184.6V116.5h24.7l156.9-.6q46.8,0,83.3,29.6,43.2,35.3,43.2,88.3c0,27.6-9.6,52.3-29,74.1q-37.7,42.6-97.5,42.6H1962.6V535.8h-49.4v-210Zm182.2-24.7A85.7,85.7,0,0,0,2138,290q34.5-19.8,34.5-56.2c0-14-4.5-26.9-13.5-38.9q-23-29.6-63.6-29.6H1962.6V301.7Z"/><path class="cls-2" d="M2299.8,115.9h49.4V535.8h-49.4V115.9Z"/></svg>